# xmcd CD database file
#
# Track frame offsets:
#	150
#	13288
#	24604
#	38145
#	50256
#	66584
#	79442
#	93187
#	103713
#	118148
#	134710
#	152582
#	167847
#	185105
#
# Disc length: 2733 seconds
#
# Revision: 2
# Processed by: cddbd v1.5.2PL0 Copyright (c) Steve Scherf et al.
# Submitted via: CDex 1.70beta2
#
DISCID=c90aab0e
DTITLE=Sergio Denis - 25Años de Exitos (Disco 1)
DYEAR=1995
DGENRE=Ballad
TTITLE0=Te llamo para despedirme
TTITLE1=Fui un soñador
TTITLE2=Pidiendo amor
TTITLE3=Aun estoy arrepentido
TTITLE4=Soy un pobre aventurero
TTITLE5=Rie conmigo ahora
TTITLE6=Fue más fuerte que yo
TTITLE7=Y el sol tambien
TTITLE8=Cuando salga el sol
TTITLE9=Me enamore sin darme cuenta
TTITLE10=Pasaron los años y no te olvide
TTITLE11=Por favor no te encariñes conmigo
TTITLE12=Te quiero
TTITLE13=Tantos deseos de ti
EXTD=YEAR: 1995
EXTT0=
EXTT1=
EXTT2=
EXTT3=
EXTT4=
EXTT5=
EXTT6=
EXTT7=
EXTT8=
EXTT9=
EXTT10=
EXTT11=
EXTT12=
EXTT13=
PLAYORDER=
